<svg width="1440" height="149" viewBox="0 0 1440 149" fill="none" xmlns="http://www.w3.org/2000/svg">
<path d="M0 55.875L40.5833 49.6473C81.1667 43.6523 162.333 30.8477 243.5 43.4777C324.667 55.875 405.833 93.125 487 93.125C568.167 93.125 649.333 55.875 730.5 55.875C811.667 55.875 892.833 93.125 974 93.125C1055.17 93.125 1136.33 55.875 1217.5 34.1652C1298.67 12.2227 1379.83 6.40234 1420.42 3.08476L1461 0V149H1420.42C1379.83 149 1298.67 149 1217.5 149C1136.33 149 1055.17 149 974 149C892.833 149 811.667 149 730.5 149C649.333 149 568.167 149 487 149C405.833 149 324.667 149 243.5 149C162.333 149 81.1667 149 40.5833 149H0V55.875Z" fill="white"/>
</svg>
